<?xml version="1.0" encoding="UTF-8"?><svg id="Layer_1" xmlns="http://www.w3.org/2000/svg" viewBox="0 0 841.89 594.23"><defs><style>.cls-1{stroke:#3c3c3b;}.cls-1,.cls-2{fill:none;}.cls-1,.cls-2,.cls-3,.cls-4,.cls-5,.cls-6,.cls-7{stroke-miterlimit:10;}.cls-1,.cls-3,.cls-4,.cls-5,.cls-6,.cls-7{stroke-width:3px;}.cls-2{stroke:#878787;stroke-width:6px;}.cls-8{fill:#7d4e24;}.cls-9{fill:#1d1e1b;}.cls-10,.cls-5{fill:#3c3c3b;}.cls-3{fill:#340e13;}.cls-3,.cls-4,.cls-5,.cls-6,.cls-7{stroke:#1d1d1b;}.cls-4{fill:#d1909f;}.cls-6{fill:#fff;}.cls-7{fill:#f5d3a6;}</style></defs><rect class="cls-8" width="841.89" height="594.23"/><path class="cls-7" d="M631.53,275.54c0,.63,0,1.26,0,1.89-.23,24.19-4.64,48.66-14.83,70.71-9.87,21.4-24.81,40.01-43.2,54.69-7.43,5.93-15.35,11.24-23.63,15.9-15.35,8.65-32.08,15.02-49.04,19.71-8.96,2.48-18.06,4.39-27.22,5.91-21.43,3.57-43.35,4.88-65.06,4.2-25.95-.82-51.9-4.67-76.81-12-19.56-5.76-38.69-13.74-55.3-25.72-17.05-12.29-31.95-27.06-43.28-44.83-12.88-20.2-21.16-43.38-24.16-67.14-.97-7.71-1.45-15.54-1.45-23.31,0-117.08,94.91-212,212-212,18.93,0,37.86,2.51,56.12,7.51,17.74,4.86,34.82,12.05,50.7,21.33,15.66,9.15,30.13,20.32,42.96,33.13s24.02,27.26,33.2,42.9c9.3,15.86,16.53,32.93,21.41,50.66,5.06,18.36,7.62,37.42,7.61,56.47Z"/><path class="cls-6" d="M371.89,273.68v37.07c-1.06,18.66-6.75,26.53-12.49,30.03-8.11,4.94-14.12-.18-35.52-.43-24.04-.28-31.05,6-40.01,.43-5.45-3.39-11.38-11.02-12.49-30.03v-37.07c0-23.39,100.51-23.39,100.51,0Z"/><path class="cls-6" d="M472.4,273.68v37.07c1.1,19.56,7.69,26.87,12.49,30.03,9.66,6.35,17.39-.65,45.95,.45,17.74,.68,22.79,3.69,29.58-.45,9.71-5.92,12.02-19.8,12.49-30.03v-37.07c0-23.39-100.51-23.39-100.51,0Z"/><path class="cls-8" d="M359.03,292.2v21.54c0,13.59-7.99,24.71-17.76,24.71h-6.46c-9.76,0-17.75-11.12-17.75-24.71v-21.54c.01-11.5,9.24-20.91,20.38-21.23,11.58-.33,21.57,9.27,21.59,21.23Z"/><path class="cls-8" d="M526.92,292.2v21.54c0,13.59-7.99,24.71-17.76,24.71h-6.46c-9.76,0-17.75-11.12-17.75-24.71v-21.54c.01-11.5,9.24-20.91,20.38-21.23,11.58-.33,21.57,9.27,21.59,21.23Z"/><line class="cls-2" x1="390.13" y1="281.72" x2="448" y2="281.72"/><path class="cls-9" d="M352.64,297.28v14.99c0,9.46-5.56,17.19-12.36,17.19h-4.5c-6.79,0-12.35-7.74-12.35-17.19v-14.99c0-8,6.43-14.55,14.18-14.77,8.06-.23,15.01,6.45,15.02,14.77Z"/><path class="cls-9" d="M520.54,296.89v15.65c0,9.88-5.81,17.95-12.9,17.95h-4.7c-7.09,0-12.9-8.08-12.9-17.95v-15.65c0-8.35,6.71-15.2,14.81-15.43,8.42-.24,15.67,6.74,15.69,15.43Z"/><path class="cls-5" d="M207.54,269.89c5.14,12.96,14.09,31.94,29.52,51.91,15.25,19.74,28.2,36.51,52.3,45.88,4.66,1.81,35.93,13.47,66.82,.55,6.97-2.92,13.78-5.76,20.37-12.44,10.69-10.82,10.48-21.2,21.14-28.62,8.13-5.66,18.53-5.77,18.53-5.77,1.43-.1,3.53-.18,6,0,0,0,10,.73,18.53,5.77,11.87,7.01,9.65,17,21.14,28.62,6.6,6.67,13.4,9.52,20.37,12.44,30.88,12.92,62.16,1.27,66.82-.55,24.1-9.37,37.05-26.14,52.3-45.88,15.43-19.97,24.38-38.94,29.52-51.91l.42-2.2c.1,2.61,.14,5.24,.14,7.88,0,117.08-94.91,173.12-212,173.12s-211.92-61.71-211.92-178.8"/><path class="cls-3" d="M448,367.01c0,15.04-12.76,27.23-28.5,27.23s-28.5-12.19-28.5-27.23,12.76-13.71,28.5-13.71,28.5-1.33,28.5,13.71Z"/><path class="cls-4" d="M391.28,370.8c4.4-1.53,10.38-3,17.51-3,17.91,0,30.68,9.29,35.27,13.01-1.41,2.23-4.22,5.99-9.04,9.02-5.55,3.49-10.96,4.24-13.96,4.4-1.73,.09-5.1,.11-9.14-.98-7.04-1.9-11.4-5.89-12.31-6.75-6.25-5.89-7.87-13.05-8.34-15.71Z"/><g><path class="cls-10" d="M265.51,223.46c3.21-2.11,6.43-4.23,9.87-5.94,.4-.2,.81-.39,1.21-.58,.12-.05,1.48-.61,.44-.2,.83-.33,1.67-.63,2.53-.89,.91-.28,1.84-.51,2.78-.7,.46-.09,.93-.17,1.39-.24-1.06,.16,.55-.05,.76-.07,1.78-.15,3.57-.16,5.35-.05,.93,.06,1.86,.15,2.8,.25,1.53,.17-.99-.18,.53,.08,.62,.11,1.24,.2,1.86,.31,3.9,.71,7.72,1.75,11.54,2.77,15.49,4.15,31.12,7.76,46.86,10.81,4.16,.8,8.34,1.5,12.49,2.34,2.03,.41,4.05,.88,6.04,1.5,1,.31,1.98,.66,2.95,1.04-1.02-.4,.36,.17,.46,.21,.55,.26,1.1,.54,1.63,.82,2.31,1.23,5.55,.66,6.84-1.79,1.22-2.32,.67-5.53-1.79-6.84-7.12-3.79-15.02-4.85-22.84-6.33s-16.35-3.24-24.47-5.09-16.1-3.82-24.1-5.94c-7.91-2.1-16.02-4.45-24.29-4.2-5.06,.15-9.79,1.33-14.4,3.38-4.06,1.81-7.78,4.28-11.49,6.71-2.18,1.43-3.31,4.49-1.79,6.84,1.41,2.18,4.5,3.33,6.84,1.79h0Z"/><path class="cls-1" d="M259.64,215.06c2.27-2.66,5.17-4.22,8.11-5.66,5.88-2.89,12.15-5.01,18.52-5.37,6.28-.35,12.46,1.18,18.53,2.74,3.21,.83,6.4,1.71,9.62,2.46,5.82,1.36,11.64,2.85,17.47,4.17,5.66,1.28,11.33,2.44,17.02,3.53,5.8,1.12,11.6,2.56,17.42,3.51,1.99,.44,3.98,.91,5.96,1.44,2.48,.66,4.93,1.48,7.27,2.6,1.26,.6,2.52,1.31,3.48,2.42,1.32,1.53,1.72,3.57,1.08,5.62-.83,2.64-3.18,3.79-5.47,3.37-4.88-.91-9.56-2.94-14.37-4.21-13.02-3.44-26.32-5.28-39.34-8.53l-15.76-3.94c-7.51-1.87-15.4-4.46-23.18-3.74-5.93,.55-11.7,2.78-16.92,6.11-.47,.3-.94,.61-1.41,.93-2.98,2.06-6.5,3.46-8.9-.34-1.36-2.15-1-4.79,.53-6.72,.11-.14,.22-.27,.33-.41Z"/></g><g><path class="cls-10" d="M590.15,201.45c-16.16-5.91-33.33-8.2-50.24-10.89-4.39-.7-8.78-1.41-13.17-2.09s-9.24-1.44-13.87-.85c-8.96,1.13-16.87,6.32-24.57,10.72-8.52,4.87-16.91,9.97-25.16,15.28-2.2,1.41-3.3,4.5-1.79,6.84,1.42,2.2,4.49,3.31,6.84,1.79,7.18-4.61,14.45-9.07,21.83-13.36,3.67-2.13,7.36-4.22,11.08-6.26,1.77-.98,3.55-1.94,5.38-2.81,.42-.2,.84-.38,1.26-.58,.52-.25-.05,.02-.14,.05,.28-.11,.57-.23,.85-.34,.92-.35,1.86-.66,2.81-.92,.51-.14,1.02-.26,1.54-.36,.27-.05,1.37-.2,.55-.11,1.12-.12,2.24-.17,3.37-.16,.97,0,1.93,.06,2.9,.14,.57,.05,1.13,.11,1.69,.17,.24,.03,.48,.06,.73,.09-.54-.07-.24-.03,.12,.02,4.31,.64,8.6,1.35,12.9,2.04,8.38,1.33,16.78,2.59,25.13,4.13,9.26,1.71,18.45,3.87,27.31,7.11,2.46,.9,5.58-1.01,6.15-3.49,.64-2.82-.86-5.19-3.49-6.15h0Z"/><path class="cls-1" d="M462.78,213.39c.41-.38,.87-.71,1.33-1.01,9.6-6.22,19.41-12.12,29.31-17.69,.4-.23,.81-.45,1.21-.68,2.04-1.14,4.09-2.26,6.16-3.32,.69-.35,1.5-.75,2.43-1.14,2.82-1.21,5.1-1.78,6.04-2,7.08-1.64,14-.41,21.07,.62,11.17,1.63,22.31,3.51,33.43,5.6,5.25,.99,10.51,1.93,15.69,3.32,2.61,.7,5.2,1.5,7.74,2.49,2.01,.78,4.35,1.6,5.69,3.64,.05,.08,.11,.17,.16,.25,.68,1.16,.94,2.62,.71,3.98-.59,3.6-3.86,4.84-6.68,4.29-1.37-.26-2.67-.83-3.99-1.34-4.68-1.81-9.61-2.96-14.44-4.1-11.02-2.61-22.2-4.29-33.34-6.02-3.83-.6-7.66-1.17-11.51-1.58-4.57-.48-9.24-1.18-13.71,.25-4.09,1.31-7.91,3.53-11.7,5.74-9.73,5.67-19.5,11.24-28.97,17.48-1.1,.72-2.24,1.47-3.51,1.54-1.31,.07-2.6-.63-3.53-1.71-1.46-1.68-2.04-4.42-1.14-6.53,.36-.83,.9-1.52,1.54-2.1Z"/></g><path class="cls-2" d="M390.37,296.98c0,38.47-31.19,69.66-69.66,69.66s-69.66-31.19-69.66-69.66c0-4.68-1.07-30.15,16.21-44.68,10.72-9.01,25.42-8.94,54.81-8.8,27.01,.13,40.72,.35,50.7,8.29,18.52,14.73,17.59,41.63,17.59,45.19Z"/><path class="cls-2" d="M587.86,296.54c0,38.16-30.93,69.09-69.09,69.09s-69.09-30.93-69.09-69.09c0-4.65-1.07-29.9,16.08-44.31,10.63-8.94,25.21-8.87,54.37-8.73,26.79,.13,40.39,.35,50.29,8.22,18.37,14.61,17.45,41.29,17.45,44.82Z"/></svg>